<?xml version="1.0" encoding="utf-8"?>
<!-- Generator: Adobe Illustrator 16.0.4, SVG Export Plug-In . SVG Version: 6.00 Build 0)  -->
<!DOCTYPE svg PUBLIC "-//W3C//DTD SVG 1.1//EN" "http://www.w3.org/Graphics/SVG/1.1/DTD/svg11.dtd">
<svg version="1.1" id="レイヤー_1" xmlns="http://www.w3.org/2000/svg" xmlns:xlink="http://www.w3.org/1999/xlink" x="0px"
	 y="0px" width="63.284px" height="24px" viewBox="0 0 63.284 24" enable-background="new 0 0 63.284 24" xml:space="preserve">
<g>
	<path d="M9.917,1.58v2.315C8.809,3.169,7.482,2.806,5.939,2.806c-1.108,0-1.988,0.259-2.643,0.776s-0.981,1.194-0.981,2.03
		c0,0.436,0.087,0.826,0.259,1.171C2.747,7.128,3.052,7.451,3.487,7.75c0.436,0.3,0.809,0.527,1.116,0.681
		c0.31,0.155,0.79,0.377,1.444,0.667c0.617,0.272,1.09,0.486,1.417,0.64s0.749,0.4,1.267,0.735c0.518,0.336,0.908,0.664,1.171,0.981
		c0.264,0.318,0.5,0.736,0.708,1.253c0.21,0.518,0.313,1.076,0.313,1.675c0,1.617-0.554,2.865-1.661,3.746
		c-1.108,0.881-2.534,1.321-4.277,1.321c-1.925,0-3.56-0.39-4.904-1.171v-2.371c1.327,0.999,2.943,1.499,4.849,1.499
		c1.144,0,2.043-0.254,2.697-0.763c0.653-0.508,0.98-1.244,0.98-2.207c0-0.399-0.077-0.758-0.231-1.076
		c-0.154-0.317-0.409-0.608-0.763-0.872c-0.354-0.264-0.69-0.481-1.008-0.654c-0.318-0.172-0.749-0.386-1.295-0.64
		c-0.108-0.054-0.271-0.127-0.489-0.218c-0.782-0.345-1.376-0.627-1.785-0.845c-0.408-0.218-0.89-0.541-1.443-0.967
		C1.04,8.741,0.635,8.245,0.381,7.682C0.127,7.119,0,6.465,0,5.72c0-1.561,0.559-2.783,1.675-3.664
		c1.117-0.88,2.521-1.321,4.209-1.321C7.465,0.735,8.809,1.017,9.917,1.58z"/>
	<path d="M17.436,7.192v8.091c0,1.471,0.689,2.207,2.07,2.207c0.709,0,1.335-0.208,1.879-0.626v2.043
		c-0.599,0.327-1.271,0.491-2.015,0.491c-2.725,0-4.087-1.39-4.087-4.168V7.192h-2.206V5.448h2.206V2.016h2.152v3.433h3.813v1.744
		H17.436z"/>
	<path d="M28.332,18.906L22.747,5.448h2.425l1.798,4.549l2.424,6.266c0.146-0.472,0.873-2.561,2.18-6.266l1.607-4.549h2.315
		l-4.984,13.458c-0.709,1.871-1.549,3.188-2.521,3.95C27.02,23.619,25.906,24,24.654,24c-0.473,0-0.854-0.045-1.145-0.136V21.93
		c0.271,0.072,0.581,0.109,0.926,0.109C26.271,22.039,27.569,20.994,28.332,18.906z"/>
	<path d="M38.057,19.26V0h2.153v19.26H38.057z"/>
	<path d="M53.068,5.448v1.58l-7.084,10.297h7.465v1.935h-9.944v-1.689l7.001-10.216h-6.729V5.448H53.068z"/>
	<path d="M58.762,5.448v2.424c0.726-1.707,1.979-2.561,3.759-2.561c0.327,0,0.582,0.018,0.764,0.054v2.125
		c-0.382-0.127-0.772-0.19-1.172-0.19c-0.963,0-1.763,0.445-2.397,1.335c-0.637,0.89-0.953,1.916-0.953,3.078v7.546h-2.153
		l0.028-13.812H58.762z"/>
</g>
</svg>
